<svg id="Layer_1" data-name="Layer 1" xmlns="http://www.w3.org/2000/svg" viewBox="0 0 332.54 73.16"><defs><style>.cls-1{font-size:12px;font-family:MyriadPro-Regular, Myriad Pro;}.cls-2{letter-spacing:-0.01em;}.cls-3{letter-spacing:2.79em;}.cls-4{fill:none;stroke:#000;stroke-linecap:square;stroke-miterlimit:10;stroke-width:0.25px;}.cls-5{fill:#ea2424;}.cls-6{fill:#3325e8;}</style></defs><title>22Artboard 1</title><text class="cls-1" transform="translate(8.65 25.66)">th<tspan class="cls-2" x="10.63" y="0">r</tspan><tspan x="14.44" y="0">ead2</tspan><tspan x="0" y="14.4">th</tspan><tspan class="cls-2" x="10.63" y="14.4">r</tspan><tspan x="14.44" y="14.4">ead3</tspan><tspan class="cls-3" x="0" y="28.8">	</tspan><tspan x="36" y="28.8" xml:space="preserve">       5 ,10     15      20, 25       30       35, 40       45       50, 55</tspan></text><line class="cls-4" x1="64.73" y1="22.39" x2="288.31" y2="22.39"/><rect class="cls-5" x="130.19" y="20.89" width="3" height="3"/><rect class="cls-5" x="63.51" y="20.89" width="3" height="3"/><rect class="cls-5" x="208.08" y="20.89" width="3" height="3" rx="1.5"/><rect class="cls-5" x="208.08" y="20.89" width="3" height="3"/><rect class="cls-5" x="286.81" y="20.89" width="3" height="3"/><line class="cls-4" x1="81.61" y1="35.47" x2="305.19" y2="35.47"/><rect class="cls-6" x="147.07" y="33.97" width="3" height="3"/><rect class="cls-6" x="80.39" y="33.97" width="3" height="3"/><rect class="cls-6" x="224.96" y="33.97" width="3" height="3" rx="1.5"/><rect class="cls-6" x="224.96" y="33.97" width="3" height="3"/><rect class="cls-6" x="303.69" y="33.97" width="3" height="3"/><polyline class="cls-4" points="109.85 43.06 111.9 42.84 111.9 40.95"/><path class="cls-4" d="M97.05,43.78s6.59-7.37,14.85-.94"/><polyline class="cls-4" points="184.85 43.23 186.9 43.01 186.9 41.13"/><path class="cls-4" d="M172,44s6.6-7.37,14.86-.94"/><polyline class="cls-4" points="263.1 43.3 265.15 43.08 265.15 41.19"/><path class="cls-4" d="M250.29,44s6.6-7.37,14.86-.94"/></svg>