<svg id="Layer_1" data-name="Layer 1" xmlns="http://www.w3.org/2000/svg" viewBox="0 0 89.95 89.71"><defs><style>.cls-1{stroke:#fff;stroke-miterlimit:10;}</style></defs><title>22Artboard 1</title><rect class="cls-1" x="2.99" y="74.74" width="12" height="12"/><rect class="cls-1" x="14.97" y="74.74" width="12" height="12"/><rect class="cls-1" x="14.96" y="62.74" width="12" height="12"/><rect class="cls-1" x="27" y="62.74" width="12" height="12"/><rect class="cls-1" x="27" y="74.74" width="12" height="12"/><rect class="cls-1" x="27" y="50.63" width="12" height="12"/><rect class="cls-1" x="38.97" y="38.72" width="12" height="12"/><rect class="cls-1" x="38.97" y="50.7" width="12" height="12"/><rect class="cls-1" x="38.97" y="62.73" width="12" height="12"/><rect class="cls-1" x="38.97" y="74.75" width="12" height="12"/><rect class="cls-1" x="50.97" y="26.74" width="12" height="12"/><rect class="cls-1" x="50.97" y="38.72" width="12" height="12"/><rect class="cls-1" x="50.99" y="50.74" width="12" height="12"/><rect class="cls-1" x="50.97" y="62.73" width="12" height="12"/><rect class="cls-1" x="50.99" y="74.74" width="12" height="12"/><rect class="cls-1" x="62.98" y="14.6" width="12" height="12"/><rect class="cls-1" x="62.98" y="26.6" width="12" height="12"/><rect class="cls-1" x="62.98" y="38.72" width="12" height="12"/><rect class="cls-1" x="62.98" y="50.74" width="12" height="12"/><rect class="cls-1" x="62.98" y="62.73" width="12" height="12"/><rect class="cls-1" x="63.49" y="74.74" width="12" height="12"/><rect class="cls-1" x="74.95" y="2.58" width="12" height="12"/><rect class="cls-1" x="74.95" y="14.68" width="12" height="12"/><rect class="cls-1" x="74.95" y="26.74" width="12" height="12"/><rect class="cls-1" x="74.95" y="38.72" width="12" height="12"/><rect class="cls-1" x="74.95" y="50.74" width="12" height="12"/><rect class="cls-1" x="74.96" y="62.73" width="12" height="12"/><rect class="cls-1" x="74.96" y="74.75" width="12" height="12"/><path d="M87,2.58V86.75H3V2.58H87m1-1H2V87.75H88V1.58Z"/></svg>