<svg id="Layer_1" data-name="Layer 1" xmlns="http://www.w3.org/2000/svg" viewBox="0 0 101.98 89.71"><defs><style>.cls-1{fill:#e04444;}.cls-1,.cls-2{stroke:#fff;stroke-miterlimit:10;}</style></defs><title>22Artboard 1</title><rect class="cls-1" x="62.98" y="2.7" width="12" height="12"/><rect class="cls-2" x="15.03" y="74.74" width="12" height="12"/><rect class="cls-2" x="27.01" y="74.74" width="12" height="12"/><rect class="cls-2" x="27" y="62.74" width="12" height="12"/><rect class="cls-1" x="15.02" y="62.74" width="12" height="12"/><rect class="cls-1" x="3.05" y="62.68" width="12" height="12"/><rect class="cls-1" x="3.05" y="74.68" width="12" height="12"/><rect class="cls-2" x="39" y="74.68" width="12" height="12"/><rect class="cls-2" x="38.99" y="62.68" width="12" height="12"/><rect class="cls-2" x="51.04" y="74.77" width="12" height="12"/><rect class="cls-2" x="51.03" y="62.77" width="12" height="12"/><rect class="cls-2" x="63.03" y="74.71" width="12" height="12"/><rect class="cls-2" x="63.02" y="62.71" width="12" height="12"/><rect class="cls-2" x="75.02" y="74.79" width="12" height="12"/><rect class="cls-2" x="75.02" y="62.79" width="12" height="12"/><rect class="cls-2" x="87.01" y="74.74" width="12" height="12"/><rect class="cls-2" x="87.01" y="62.74" width="12" height="12"/><rect class="cls-2" x="63.04" y="50.67" width="12" height="12"/><rect class="cls-2" x="63.03" y="38.67" width="12" height="12"/><rect class="cls-2" x="75.03" y="50.75" width="12" height="12"/><rect class="cls-2" x="75.03" y="38.75" width="12" height="12"/><rect class="cls-2" x="87.02" y="50.7" width="12" height="12"/><rect class="cls-2" x="87.01" y="38.7" width="12" height="12"/><rect class="cls-2" x="51.04" y="50.75" width="12" height="12"/><rect class="cls-2" x="50.98" y="38.66" width="12" height="12"/><rect class="cls-2" x="75.01" y="26.74" width="12" height="12"/><rect class="cls-2" x="75" y="14.74" width="12" height="12"/><rect class="cls-2" x="86.99" y="26.69" width="12" height="12"/><rect class="cls-2" x="86.99" y="14.69" width="12" height="12"/><rect class="cls-2" x="87.02" y="2.7" width="12" height="12"/><rect class="cls-2" x="62.98" y="26.65" width="12" height="12"/><rect class="cls-2" x="39.02" y="50.67" width="12" height="12"/><rect class="cls-1" x="3.05" y="38.66" width="12" height="12"/><rect class="cls-1" x="3.05" y="50.63" width="12" height="12"/><rect class="cls-1" x="3.05" y="14.69" width="12" height="12"/><rect class="cls-1" x="3.05" y="26.73" width="12" height="12"/><rect class="cls-1" x="3.05" y="2.7" width="12" height="12"/><rect class="cls-1" x="15.01" y="50.63" width="12" height="12"/><rect class="cls-1" x="15.03" y="38.66" width="12" height="12"/><rect class="cls-1" x="15.03" y="14.69" width="12" height="12"/><rect class="cls-1" x="15.03" y="26.71" width="12" height="12"/><rect class="cls-1" x="15.03" y="2.7" width="12" height="12"/><rect class="cls-1" x="27.01" y="38.66" width="12" height="12"/><rect class="cls-1" x="27" y="14.69" width="12" height="12"/><rect class="cls-1" x="27" y="26.69" width="12" height="12"/><rect class="cls-1" x="27.03" y="2.7" width="12" height="12"/><rect class="cls-1" x="38.98" y="38.59" width="12" height="12"/><rect class="cls-1" x="38.98" y="14.69" width="12" height="12"/><rect class="cls-1" x="38.98" y="26.71" width="12" height="12"/><rect class="cls-1" x="38.99" y="2.7" width="12" height="12"/><rect class="cls-1" x="51" y="14.69" width="12" height="12"/><rect class="cls-1" x="50.98" y="26.71" width="12" height="12"/><rect class="cls-1" x="51.01" y="2.7" width="12" height="12"/><rect class="cls-1" x="62.99" y="14.69" width="12" height="12"/><rect class="cls-1" x="75" y="2.7" width="12" height="12"/><rect class="cls-1" x="27.01" y="50.7" width="12" height="12"/><path d="M99,2.7v84L3.05,86.68V2.7H99m1-1H2.05v86h1L99,87.74h1V1.7Z"/></svg>